<svg xmlns="http://www.w3.org/2000/svg" viewBox="0 0 1280 683.5"><g id="Layer_2" data-name="Layer 2"><polygon points="234.03 319.87 308.05 160 160 160 234.03 319.87"/><path d="M357.58,372.91H375L301,213l-74,159.87h17.43l17.42-37.62h78.36Zm-88.65-53,32-69.21,32,69.21Z"/><path d="M523.71,160c1.18,0,1.83.25,2,.75a3.45,3.45,0,0,1-.19,1.9l-29.13,81.85a3.28,3.28,0,0,1-3.29,2.4h-5.92a3.26,3.26,0,0,1-2.09-.57,5.2,5.2,0,0,1-1.31-2.08l-30-81.22a3.18,3.18,0,0,1-.07-2.08c.21-.64.82-1,1.83-1h7.31a5,5,0,0,1,2.59.51,3.49,3.49,0,0,1,1.33,1.89l24,68h.25L514,162.66a4.7,4.7,0,0,1,1.33-2.14,4.31,4.31,0,0,1,2.46-.51Z"/><path d="M584.5,245.27c0,1.1-.63,1.64-1.89,1.64h-5.29a7.17,7.17,0,0,1-6.19-2.77,10.91,10.91,0,0,1-2-6.56h-.25a15.45,15.45,0,0,1-3.16,4,23.55,23.55,0,0,1-4.54,3.34,25.47,25.47,0,0,1-5.42,2.33,19.46,19.46,0,0,1-5.8.89,23.67,23.67,0,0,1-11.29-2.52,22.65,22.65,0,0,1-7.82-6.82A29.27,29.27,0,0,1,526.3,229a45,45,0,0,1-1.45-11.48A42.43,42.43,0,0,1,527,203.46a29.92,29.92,0,0,1,5.86-10.28,25.51,25.51,0,0,1,8.58-6.37,24.54,24.54,0,0,1,10.28-2.2,23.7,23.7,0,0,1,9.39,1.95,18.3,18.3,0,0,1,7.51,5.74l.12-4.16c0-1.43.8-2.15,2.39-2.15h5.68c1.51,0,2.27.81,2.27,2.39v44.15c0,1.43,0,2.63.13,3.6a5,5,0,0,0,.5,2.07,2.27,2.27,0,0,0,2.15,1.14h.88a2.31,2.31,0,0,1,1.33.32c.29.2.43.65.43,1.32Zm-16.14-43a16.46,16.46,0,0,0-6.49-6.69,17.62,17.62,0,0,0-8.77-2.39,15,15,0,0,0-12.17,6.12q-4.86,6.12-4.85,17.46,0,10.49,4.35,16.47c2.9,4,6.61,6,11.16,6a15.05,15.05,0,0,0,5.67-1.07,18.45,18.45,0,0,0,4.86-2.91,21,21,0,0,0,6.24-8.76Z"/><path d="M646.81,244.14c0,1.84-.84,2.77-2.52,2.77h-5.42a2.12,2.12,0,0,1-2.4-2.4l-.13-3.9a30.14,30.14,0,0,1-19.93,7.56,23.15,23.15,0,0,1-9.2-1.64,15.05,15.05,0,0,1-6.12-4.67,19.71,19.71,0,0,1-3.41-7.25,37.81,37.81,0,0,1-1.07-9.27V188.51a2.23,2.23,0,0,1,2.53-2.52h5.67a2.23,2.23,0,0,1,2.52,2.52v35.2a40,40,0,0,0,.44,6.17,12.17,12.17,0,0,0,1.77,4.79,8.84,8.84,0,0,0,3.72,3.16,14.46,14.46,0,0,0,6.18,1.13,16.87,16.87,0,0,0,4.36-.63,29.93,29.93,0,0,0,4.53-1.64,28,28,0,0,0,4.23-2.39,32.94,32.94,0,0,0,3.53-2.78v-43c0-1.67.8-2.52,2.39-2.52h5.93c1.6,0,2.4.85,2.4,2.52Z"/><path d="M674.3,244.26c0,1.76-.76,2.65-2.27,2.65h-6.18c-1.51,0-2.27-.84-2.27-2.53V160.64a3,3,0,0,1,.38-1.82,2.75,2.75,0,0,1,1.51-.7c1.6-.26,2.86-.42,3.78-.5s1.6-.17,2-.26a6.67,6.67,0,0,1,.83-.13h.31c1.26,0,1.89.72,1.89,2.15Z"/><path d="M706.71,237.2q2.28,2.52,6.94,2.52a19,19,0,0,0,4.29-.5c1.43-.34,2.65-.67,3.65-1a1.9,1.9,0,0,1,1.33,0,1.62,1.62,0,0,1,1,1.14l1,4c.24,1.09-.3,1.93-1.64,2.52a33.42,33.42,0,0,1-5.3,1.58,30.08,30.08,0,0,1-6.43.69,26.89,26.89,0,0,1-7.82-1.13,12.64,12.64,0,0,1-5.93-3.53,12.88,12.88,0,0,1-3.34-7,71.4,71.4,0,0,1-.57-9.9v-33h-6.94c-.84,0-1.36-.1-1.57-.32s-.32-.73-.32-1.57v-3.92c0-1.17.55-1.76,1.64-1.76h7.19V171.61a2.73,2.73,0,0,1,.44-1.83,3.56,3.56,0,0,1,1.7-.69l6.19-.88h.5c1.26,0,1.89.76,1.89,2.27V186h14.88a2.31,2.31,0,0,1,1.33.32,1.57,1.57,0,0,1,.44,1.32v4.29c0,1.09-.63,1.64-1.89,1.64H704.57v34.05a35,35,0,0,0,.38,5.55A8.1,8.1,0,0,0,706.71,237.2Z"/><path d="M756.52,216a3.52,3.52,0,0,1-.5,2.14,2.48,2.48,0,0,1-2,.63h-19.3a3.17,3.17,0,0,1-2.27-.56,2.72,2.72,0,0,1-.51-1.83v-5.18a2.27,2.27,0,0,1,.57-1.83,3.37,3.37,0,0,1,2-.44h19.3a3.4,3.4,0,0,1,2.27.51,3,3,0,0,1,.5,2Z"/><path d="M824.76,215.89a42.93,42.93,0,0,1-1.7,12.1A31.45,31.45,0,0,1,818,238.27a24.91,24.91,0,0,1-20.56,9.9,25.3,25.3,0,0,1-9.2-1.76,17.81,17.81,0,0,1-7.45-5.3v30.52a2.12,2.12,0,0,1-.75,1.89,3.58,3.58,0,0,1-2,.51h-5.55c-1.6,0-2.4-.89-2.4-2.66V188.26a2.23,2.23,0,0,1,.57-1.82,3,3,0,0,1,1.83-.45h4.79a4.25,4.25,0,0,1,2.15.45,1.94,1.94,0,0,1,.75,1.82v4.41a21.26,21.26,0,0,1,8.2-5.86,26.77,26.77,0,0,1,10.59-2.2,24.67,24.67,0,0,1,11.61,2.58,23.09,23.09,0,0,1,8.07,6.94,30.2,30.2,0,0,1,4.67,10A45.32,45.32,0,0,1,824.76,215.89Zm-11.22.24a45.9,45.9,0,0,0-.76-8.26,22,22,0,0,0-2.72-7.38,15.57,15.57,0,0,0-5.17-5.29,15.07,15.07,0,0,0-8.13-2,17.7,17.7,0,0,0-4.61.63,23.69,23.69,0,0,0-4.47,1.71,20.87,20.87,0,0,0-4,2.58,16.31,16.31,0,0,0-3,3.15v29.64A18.45,18.45,0,0,0,796,239.72a15.3,15.3,0,0,0,8.26-2.08,16.63,16.63,0,0,0,5.43-5.48,24,24,0,0,0,3-7.64A40.77,40.77,0,0,0,813.54,216.13Z"/><path d="M848.85,244.26c0,1.76-.76,2.65-2.27,2.65H840.4c-1.51,0-2.27-.84-2.27-2.53V160.64a3,3,0,0,1,.38-1.82,2.75,2.75,0,0,1,1.51-.7c1.6-.26,2.86-.42,3.78-.5s1.6-.17,2-.26a6.67,6.67,0,0,1,.83-.13H847c1.26,0,1.89.72,1.89,2.15Z"/><path d="M915.94,244.14c0,1.84-.83,2.77-2.51,2.77H908a2.11,2.11,0,0,1-2.39-2.4l-.13-3.9a30.14,30.14,0,0,1-19.93,7.56,23.2,23.2,0,0,1-9.21-1.64,15.19,15.19,0,0,1-6.12-4.67,19.54,19.54,0,0,1-3.4-7.25,37.81,37.81,0,0,1-1.07-9.27V188.51a2.23,2.23,0,0,1,2.53-2.52H874a2.23,2.23,0,0,1,2.52,2.52v35.2a38.81,38.81,0,0,0,.44,6.17,12.32,12.32,0,0,0,1.76,4.79,8.93,8.93,0,0,0,3.73,3.16,14.43,14.43,0,0,0,6.18,1.13,16.8,16.8,0,0,0,4.35-.63,29.66,29.66,0,0,0,4.54-1.64,27.89,27.89,0,0,0,4.22-2.39,32.14,32.14,0,0,0,3.54-2.78v-43c0-1.67.79-2.52,2.39-2.52h5.93c1.6,0,2.39.85,2.39,2.52Z"/><path d="M984.05,243.63a49.72,49.72,0,0,1-1.58,13.12,24.7,24.7,0,0,1-5,9.77,21.42,21.42,0,0,1-8.83,6.05,36.25,36.25,0,0,1-13,2.09,37.11,37.11,0,0,1-9.14-1.2,48.55,48.55,0,0,1-8.76-3.09,2.27,2.27,0,0,1-1.52-2,4,4,0,0,1,.25-1.14l1.39-3.78c.42-1.18,1-1.77,1.76-1.77a3,3,0,0,1,1.26.38,56.66,56.66,0,0,0,7.32,2.65,25.75,25.75,0,0,0,7.19,1.13,23.19,23.19,0,0,0,8.7-1.38,13.37,13.37,0,0,0,5.49-4,15.11,15.11,0,0,0,2.9-6.43,42.64,42.64,0,0,0,.82-8.76v-5.81a20.82,20.82,0,0,1-8.13,5.43,26.83,26.83,0,0,1-9.91,2,26.17,26.17,0,0,1-11.6-2.4,22.68,22.68,0,0,1-8.14-6.56,27.39,27.39,0,0,1-4.72-9.71,44.29,44.29,0,0,1-1.51-11.72,41.2,41.2,0,0,1,1.76-12.11,30,30,0,0,1,5.3-10.22,25.66,25.66,0,0,1,8.63-7,26.14,26.14,0,0,1,11.93-2.58,24.47,24.47,0,0,1,9.13,1.89,17.12,17.12,0,0,1,7.51,5.54l.13-3.9c0-1.43.84-2.15,2.52-2.15h5.55c1.51,0,2.27.85,2.27,2.52Zm-10.72-41.75A17.9,17.9,0,0,0,967,195.7a16.76,16.76,0,0,0-8.82-2.52,15.55,15.55,0,0,0-13.69,7.07,22.17,22.17,0,0,0-3,7.25,37.21,37.21,0,0,0-.94,8.39,39.14,39.14,0,0,0,.82,8,22.33,22.33,0,0,0,2.77,7.19,15.32,15.32,0,0,0,5.11,5.17,14.52,14.52,0,0,0,7.82,1.95,20.9,20.9,0,0,0,9.21-2.27,18.07,18.07,0,0,0,7.06-5.67Z"/><path d="M1013.81,171.11a5.37,5.37,0,0,1-2,4.41,7,7,0,0,1-4.54,1.64,6.71,6.71,0,0,1-4.47-1.64,5.94,5.94,0,0,1,0-8.82,6.72,6.72,0,0,1,4.47-1.65,7,7,0,0,1,4.54,1.65A5.35,5.35,0,0,1,1013.81,171.11Zm-1.14,73.15c0,1.76-.8,2.65-2.39,2.65h-5.8c-1.69,0-2.53-.89-2.53-2.65V188.51a2.23,2.23,0,0,1,2.53-2.52h5.8c1.59,0,2.39.85,2.39,2.52Z"/><path d="M1081.92,244.26c0,1.76-.8,2.65-2.39,2.65h-5.93c-1.6,0-2.4-.89-2.4-2.65V208.94a34.29,34.29,0,0,0-.51-6.17,12.76,12.76,0,0,0-1.88-4.86,9.19,9.19,0,0,0-3.79-3.22,14.61,14.61,0,0,0-6.18-1.13,19.59,19.59,0,0,0-4.54.57,26.44,26.44,0,0,0-4.67,1.57,38.75,38.75,0,0,0-4.41,2.33,24.25,24.25,0,0,0-3.78,2.85v43.38c0,1.76-.8,2.65-2.4,2.65h-5.93c-1.6,0-2.39-.84-2.39-2.53V188.51c0-1.67.79-2.52,2.39-2.52h5.55c1.6,0,2.4.76,2.4,2.27l.12,3.91a33.12,33.12,0,0,1,9.78-5.61,31.44,31.44,0,0,1,10.91-1.95q10.85,0,15.45,6.11t4.6,16.46Z"/><path d="M1120,216a3.52,3.52,0,0,1-.5,2.14,2.49,2.49,0,0,1-2,.63h-19.29a3.16,3.16,0,0,1-2.27-.56,2.67,2.67,0,0,1-.51-1.83v-5.18a2.31,2.31,0,0,1,.56-1.83,3.41,3.41,0,0,1,2-.44h19.3a3.42,3.42,0,0,1,2.27.51,3,3,0,0,1,.5,2Z"/><path d="M510.72,370.38c0,1.76-.63,2.65-1.89,2.65h-5.42c-1.77,0-2.65-.8-2.65-2.4l-.13-4.53a21.93,21.93,0,0,1-8.07,5.92,25.28,25.28,0,0,1-10.47,2.27,24.83,24.83,0,0,1-11.73-2.59,22.88,22.88,0,0,1-8.07-6.93,30.16,30.16,0,0,1-4.67-10,46.15,46.15,0,0,1-1.51-11.85A40.88,40.88,0,0,1,458.06,330a30.84,30.84,0,0,1,5.55-10.22,26,26,0,0,1,8.65-6.75,25.53,25.53,0,0,1,11.35-2.46,23.71,23.71,0,0,1,9,1.89,19.12,19.12,0,0,1,7.38,5.17V286.89a3.43,3.43,0,0,1,.37-1.83,2.49,2.49,0,0,1,1.64-.82c1.6-.25,2.83-.42,3.72-.5s1.56-.17,2-.26.74-.12.82-.12h.25c1.26,0,1.89.71,1.89,2.14ZM500,328a17.38,17.38,0,0,0-6.12-6.25,16.18,16.18,0,0,0-8.77-2.58q-8.58,0-13.25,6.37t-4.66,16.83a38.54,38.54,0,0,0,1.07,9.33,22.41,22.41,0,0,0,3.22,7.38,15.82,15.82,0,0,0,5.29,4.86,14.71,14.71,0,0,0,7.32,1.76,16.52,16.52,0,0,0,4.54-.63,21.25,21.25,0,0,0,4.41-1.76,23.07,23.07,0,0,0,4-2.65,14.24,14.24,0,0,0,3-3.28Z"/><path d="M583.12,371.39c0,1.1-.64,1.64-1.9,1.64h-5.29a7.17,7.17,0,0,1-6.19-2.77,10.89,10.89,0,0,1-2-6.56h-.25a15.65,15.65,0,0,1-3.16,4,23.93,23.93,0,0,1-4.54,3.33,26,26,0,0,1-5.42,2.34,19.77,19.77,0,0,1-5.8.88,23.67,23.67,0,0,1-11.29-2.52,22.73,22.73,0,0,1-7.82-6.81,29.42,29.42,0,0,1-4.54-9.84,45,45,0,0,1-1.45-11.48,42.43,42.43,0,0,1,2.15-14.06,30.17,30.17,0,0,1,5.86-10.28,25.51,25.51,0,0,1,8.58-6.37,24.54,24.54,0,0,1,10.28-2.2,23.87,23.87,0,0,1,9.39,1.95,18.38,18.38,0,0,1,7.51,5.74l.12-4.16c0-1.43.8-2.15,2.39-2.15h5.68c1.51,0,2.27.81,2.27,2.4v44.14c0,1.43,0,2.63.13,3.6a5,5,0,0,0,.5,2.07,2.27,2.27,0,0,0,2.15,1.15h.88a2.31,2.31,0,0,1,1.33.31,1.57,1.57,0,0,1,.44,1.32Zm-16.15-43a16.37,16.37,0,0,0-6.49-6.68,17.63,17.63,0,0,0-8.77-2.4,15,15,0,0,0-12.17,6.12q-4.86,6.12-4.85,17.47,0,10.47,4.35,16.46c2.9,4,6.61,6,11.16,6a15.05,15.05,0,0,0,5.67-1.07,18.45,18.45,0,0,0,4.86-2.91,20.07,20.07,0,0,0,3.78-4.1A20.3,20.3,0,0,0,567,352.6Z"/><path d="M610.74,363.32q2.26,2.52,6.94,2.52a19,19,0,0,0,4.28-.5c1.43-.34,2.65-.67,3.66-1a1.87,1.87,0,0,1,1.32,0,1.59,1.59,0,0,1,.95,1.15l1,4c.25,1.09-.3,1.93-1.64,2.52a33.42,33.42,0,0,1-5.3,1.58,29.94,29.94,0,0,1-6.43.69,26.94,26.94,0,0,1-7.82-1.13,12.56,12.56,0,0,1-5.93-3.53,12.88,12.88,0,0,1-3.34-7,71.54,71.54,0,0,1-.56-9.89V319.68h-7a2.42,2.42,0,0,1-1.57-.32,2.45,2.45,0,0,1-.32-1.57v-3.91c0-1.18.55-1.77,1.64-1.77h7.2V297.73a2.67,2.67,0,0,1,.44-1.83,3.47,3.47,0,0,1,1.7-.68l6.18-.89h.5c1.26,0,1.89.76,1.89,2.27v15.51h14.89a2.27,2.27,0,0,1,1.32.32,1.58,1.58,0,0,1,.44,1.33v4.29c0,1.08-.63,1.63-1.89,1.63H608.59v34.05a35,35,0,0,0,.38,5.55A8.11,8.11,0,0,0,610.74,363.32Z"/><path d="M692.71,371.39c0,1.1-.63,1.64-1.89,1.64h-5.3a7.17,7.17,0,0,1-6.18-2.77,10.89,10.89,0,0,1-2-6.56h-.26a15.61,15.61,0,0,1-3.15,4,24.25,24.25,0,0,1-4.54,3.33,26.25,26.25,0,0,1-5.42,2.34,19.82,19.82,0,0,1-5.8.88,23.74,23.74,0,0,1-11.3-2.52A22.82,22.82,0,0,1,639,365a29.21,29.21,0,0,1-4.53-9.84,45,45,0,0,1-1.46-11.48,42.43,42.43,0,0,1,2.15-14.06,30.34,30.34,0,0,1,5.86-10.28,25.71,25.71,0,0,1,8.58-6.37,24.57,24.57,0,0,1,10.28-2.2,23.89,23.89,0,0,1,9.4,1.95,18.42,18.42,0,0,1,7.5,5.74l.12-4.16c0-1.43.8-2.15,2.4-2.15H685c1.51,0,2.27.81,2.27,2.4v44.14c0,1.43,0,2.63.13,3.6a5,5,0,0,0,.5,2.07,2.25,2.25,0,0,0,2.15,1.15H691a2.26,2.26,0,0,1,1.32.31c.3.21.44.65.44,1.32Zm-16.14-43a16.33,16.33,0,0,0-6.5-6.68,17.63,17.63,0,0,0-8.77-2.4,14.91,14.91,0,0,0-12.16,6.12q-4.86,6.12-4.86,17.47,0,10.47,4.36,16.46t11.15,6a15.07,15.07,0,0,0,5.68-1.07,18.4,18.4,0,0,0,4.85-2.91,20.41,20.41,0,0,0,3.79-4.1,20.7,20.7,0,0,0,2.46-4.66Z"/><path d="M759.3,342.38a43.1,43.1,0,0,1-1.7,12.24,29.83,29.83,0,0,1-5.1,10.15,24.81,24.81,0,0,1-8.58,6.93,27,27,0,0,1-12.24,2.59,21.49,21.49,0,0,1-9.46-2.27,22.31,22.31,0,0,1-7.44-5.55l-.25,4.54c-.09,1.35-.92,2-2.52,2h-4.79a2.12,2.12,0,0,1-2.4-2.4V286.89a4,4,0,0,1,.31-1.83,2.25,2.25,0,0,1,1.58-.82c1.6-.25,2.84-.42,3.73-.5s1.54-.17,2-.26a7.91,7.91,0,0,1,.82-.12h.25c1.35,0,2,.71,2,2.14v32.42a25.52,25.52,0,0,1,7.63-5.05,27.46,27.46,0,0,1,19.61-.63,23,23,0,0,1,6.94,4.16A26.23,26.23,0,0,1,757,327.63,45.12,45.12,0,0,1,759.3,342.38Zm-11.22.51a42.39,42.39,0,0,0-1-9.27,23.52,23.52,0,0,0-2.9-7.38,14,14,0,0,0-5.1-4.92,15.36,15.36,0,0,0-7.58-1.77,19.21,19.21,0,0,0-8.76,2.21,25.37,25.37,0,0,0-7.25,5.36v30.14a20.05,20.05,0,0,0,6.49,6,17.48,17.48,0,0,0,16.53.51,15.71,15.71,0,0,0,5.49-5,21.22,21.22,0,0,0,3.08-7.25A38.39,38.39,0,0,0,748.08,342.89Z"/><path d="M828.42,371.39c0,1.1-.63,1.64-1.9,1.64h-5.29a7.17,7.17,0,0,1-6.18-2.77,10.83,10.83,0,0,1-2-6.56h-.25a15.65,15.65,0,0,1-3.16,4,24.18,24.18,0,0,1-4.53,3.33,26.1,26.1,0,0,1-5.43,2.34,19.72,19.72,0,0,1-5.8.88,23.7,23.7,0,0,1-11.29-2.52,22.73,22.73,0,0,1-7.82-6.81,29.42,29.42,0,0,1-4.54-9.84,45.49,45.49,0,0,1-1.45-11.48,42.43,42.43,0,0,1,2.15-14.06,30.34,30.34,0,0,1,5.86-10.28,25.71,25.71,0,0,1,8.58-6.37,24.54,24.54,0,0,1,10.28-2.2,23.84,23.84,0,0,1,9.39,1.95,18.38,18.38,0,0,1,7.51,5.74l.12-4.16c0-1.43.8-2.15,2.4-2.15h5.68c1.51,0,2.26.81,2.26,2.4v44.14c0,1.43,0,2.63.13,3.6a5,5,0,0,0,.51,2.07,2.25,2.25,0,0,0,2.14,1.15h.88a2.31,2.31,0,0,1,1.33.31,1.57,1.57,0,0,1,.44,1.32Zm-16.14-43a16.39,16.39,0,0,0-6.5-6.68,17.63,17.63,0,0,0-8.77-2.4,14.91,14.91,0,0,0-12.16,6.12Q780,331.54,780,342.89q0,10.47,4.35,16.46t11.16,6a15,15,0,0,0,5.67-1.07,18.29,18.29,0,0,0,4.86-2.91,20.41,20.41,0,0,0,3.79-4.1,21.11,21.11,0,0,0,2.46-4.66Z"/><path d="M877.73,355.5a17.55,17.55,0,0,1-1.7,7.88,16.38,16.38,0,0,1-4.79,5.86,23,23,0,0,1-7.32,3.73,31,31,0,0,1-9.27,1.32,34.57,34.57,0,0,1-9.46-1.32,60,60,0,0,1-7.82-2.71,1.7,1.7,0,0,1-1.13-2.4l1.63-4.54c.43-1.18,1.14-1.55,2.15-1.14a68.92,68.92,0,0,0,7.7,2.66A27.45,27.45,0,0,0,855,366a14.41,14.41,0,0,0,8.89-2.52,8.21,8.21,0,0,0,3.34-6.94,7.43,7.43,0,0,0-2.52-5.87,24.12,24.12,0,0,0-6.94-4l-8.45-3.28a24.63,24.63,0,0,1-9.33-6,13.77,13.77,0,0,1-3.65-9.9,14.65,14.65,0,0,1,1.76-7.31A15.78,15.78,0,0,1,842.8,315a21.26,21.26,0,0,1,6.74-3.15,30,30,0,0,1,8-1.07,44,44,0,0,1,8.06.75,35,35,0,0,1,8.33,2.78c.76.42,1.13.84,1.13,1.26a4,4,0,0,1-.25,1l-1.39,4.41c-.24.84-.71,1.27-1.39,1.27a4.19,4.19,0,0,1-1-.26,37.81,37.81,0,0,0-6.37-2.08,29.26,29.26,0,0,0-6.88-.95q-5,0-7.69,2.27a7.07,7.07,0,0,0-2.65,5.55,6.58,6.58,0,0,0,1.89,5.05,21.22,21.22,0,0,0,5.93,3.53l9.84,4.16a24.72,24.72,0,0,1,9,6.06A14,14,0,0,1,877.73,355.5Z"/><path d="M940.16,340.62a4.4,4.4,0,0,1-.63,2.83c-.42.47-1.47.7-3.15.7H897.66a27.9,27.9,0,0,0,1.45,8.38,19.91,19.91,0,0,0,3.85,6.75,17.39,17.39,0,0,0,6.18,4.54,20.35,20.35,0,0,0,8.45,1.65,46.06,46.06,0,0,0,7.88-.7,38.77,38.77,0,0,0,7.26-2,6.42,6.42,0,0,1,1.7-.25c.54,0,.9.38,1.07,1.14l1.39,4.67a1.37,1.37,0,0,1-.13,1.32,4.87,4.87,0,0,1-1.26.94,21.53,21.53,0,0,1-4.48,1.64c-1.64.43-3.33.8-5,1.14a46.16,46.16,0,0,1-5.12.69c-1.67.13-3.23.19-4.66.19A33.91,33.91,0,0,1,903.33,372a25.35,25.35,0,0,1-9.33-6.43,27.14,27.14,0,0,1-5.68-10,42.67,42.67,0,0,1-1.88-13.05,38.24,38.24,0,0,1,2-12.61,28.85,28.85,0,0,1,5.86-10,28,28,0,0,1,9.28-6.68,29.14,29.14,0,0,1,12.23-2.46,24.51,24.51,0,0,1,9.71,1.83,22.28,22.28,0,0,1,7.44,5.1,23.13,23.13,0,0,1,5.49,9.28,37.75,37.75,0,0,1,1.7,11.54Zm-10.59-3.79v-1.76a21,21,0,0,0-.89-6.12,14.58,14.58,0,0,0-2.64-5.11,13.26,13.26,0,0,0-4.48-3.46,14,14,0,0,0-6.24-1.33,16.37,16.37,0,0,0-7,1.45,15.76,15.76,0,0,0-5.24,3.91,20.19,20.19,0,0,0-3.46,5.68,24.11,24.11,0,0,0-1.71,6.74Z"/><path d="M975.6,342.13a3.58,3.58,0,0,1-.5,2.15,2.51,2.51,0,0,1-2,.63h-19.3a3.12,3.12,0,0,1-2.27-.57,2.7,2.7,0,0,1-.51-1.83v-5.18a2.24,2.24,0,0,1,.57-1.82,3.3,3.3,0,0,1,1.95-.44h19.3a3.42,3.42,0,0,1,2.27.5,3,3,0,0,1,.5,2Z"/><path d="M516.9,499.15a4.13,4.13,0,0,1-2.27-.44,3.7,3.7,0,0,1-1.13-1.83l-8.33-23.45H472.5L463.81,497a4.54,4.54,0,0,1-1,1.7,2.89,2.89,0,0,1-1.88.44h-7.45c-.92,0-1.39-.27-1.39-.82a6.17,6.17,0,0,1,.26-1.7L484,414a2.3,2.3,0,0,1,2.27-1.76h6.69a2.27,2.27,0,0,1,2.27,1.51l31.15,82.73a3.16,3.16,0,0,1,.19,1.83c-.12.55-.74.82-1.83.82Zm-14.75-34.43-10.09-28.88q-1.14-3.27-1.83-5.43c-.46-1.42-.82-2.6-1.07-3.53H489l-3.15,9.21-10.35,28.63Z"/><path d="M586.27,466.74a4.46,4.46,0,0,1-.63,2.84c-.42.46-1.47.69-3.16.69H543.77a28.34,28.34,0,0,0,1.44,8.39,20.44,20.44,0,0,0,3.85,6.75,17.49,17.49,0,0,0,6.19,4.53,20.32,20.32,0,0,0,8.45,1.65,45.07,45.07,0,0,0,7.88-.7,38.67,38.67,0,0,0,7.25-1.95,6.12,6.12,0,0,1,1.71-.26c.54,0,.9.38,1.07,1.14l1.39,4.67a1.4,1.4,0,0,1-.13,1.32,5.1,5.1,0,0,1-1.26.95,22,22,0,0,1-4.49,1.63c-1.63.43-3.32.8-5,1.14a43.46,43.46,0,0,1-5.11.69c-1.68.13-3.23.19-4.66.19a33.92,33.92,0,0,1-12.87-2.26,25.41,25.41,0,0,1-9.33-6.44,26.93,26.93,0,0,1-5.68-10,42.62,42.62,0,0,1-1.88-13.05,38.28,38.28,0,0,1,2-12.61,28.72,28.72,0,0,1,5.86-10,28.06,28.06,0,0,1,9.28-6.69,29.26,29.26,0,0,1,12.23-2.46,24.51,24.51,0,0,1,9.71,1.83,22.28,22.28,0,0,1,7.44,5.1,23.31,23.31,0,0,1,5.49,9.28,38.06,38.06,0,0,1,1.7,11.54ZM575.68,463v-1.76a21.32,21.32,0,0,0-.89-6.12,14.53,14.53,0,0,0-2.64-5.1,13.29,13.29,0,0,0-4.48-3.47,14,14,0,0,0-6.24-1.33,16.42,16.42,0,0,0-7,1.45,15.86,15.86,0,0,0-5.23,3.91,20,20,0,0,0-3.46,5.68A24.2,24.2,0,0,0,544,463Z"/><path d="M609.23,440.51l.12,4.29a22.32,22.32,0,0,1,5.87-5.55,15.16,15.16,0,0,1,8.63-2.4q.63,0,1.65.06a10.78,10.78,0,0,1,2,.32c.59.16.93.46,1,.88a3.34,3.34,0,0,1,0,1.26l-.88,5.68a1.26,1.26,0,0,1-1.39,1.26,6.44,6.44,0,0,1-1.51-.19,12.19,12.19,0,0,0-2.53-.19,13,13,0,0,0-6.68,2,19.47,19.47,0,0,0-5.93,5.55v43c0,1.77-.8,2.65-2.39,2.65h-5.93c-1.6,0-2.4-.88-2.4-2.65V440.76c0-1.68.8-2.53,2.4-2.53h5.42C608.38,438.23,609.23,439,609.23,440.51Z"/><path d="M691.45,468.63a40.1,40.1,0,0,1-1.89,12.49A29.23,29.23,0,0,1,684,491.21,26.45,26.45,0,0,1,674.8,498a33.39,33.39,0,0,1-25.16,0,24,24,0,0,1-8.83-6.74,28.12,28.12,0,0,1-5.11-10.09,46.43,46.43,0,0,1-1.63-12.62A40.38,40.38,0,0,1,636,456a28.73,28.73,0,0,1,5.55-10,26,26,0,0,1,9.09-6.69,29.89,29.89,0,0,1,12.48-2.46,30.82,30.82,0,0,1,12.68,2.4,23.62,23.62,0,0,1,8.82,6.62A27.89,27.89,0,0,1,689.75,456,45.39,45.39,0,0,1,691.45,468.63Zm-11.1.13a42,42,0,0,0-.88-8.64,24.19,24.19,0,0,0-2.9-7.57A14.93,14.93,0,0,0,663,445.17a16.56,16.56,0,0,0-8.58,2,15.46,15.46,0,0,0-5.42,5.36,23.8,23.8,0,0,0-2.9,7.44,39,39,0,0,0-.89,8.26,44.88,44.88,0,0,0,.82,8.64,24.52,24.52,0,0,0,2.78,7.63,15.21,15.21,0,0,0,5.29,5.49,15.6,15.6,0,0,0,8.39,2.08,16.37,16.37,0,0,0,8.39-2,16,16,0,0,0,5.55-5.29,23.42,23.42,0,0,0,3-7.45A38.55,38.55,0,0,0,680.35,468.76Z"/><path d="M742,481.62a17.52,17.52,0,0,1-1.71,7.88,16.49,16.49,0,0,1-4.79,5.87,23.21,23.21,0,0,1-7.31,3.72,30.74,30.74,0,0,1-9.28,1.32,34.24,34.24,0,0,1-9.46-1.32,61.12,61.12,0,0,1-7.82-2.71,1.7,1.7,0,0,1-1.13-2.4l1.64-4.54c.42-1.17,1.13-1.55,2.15-1.13A70.81,70.81,0,0,0,712,491a27.52,27.52,0,0,0,7.32,1.13,14.43,14.43,0,0,0,8.89-2.52,8.23,8.23,0,0,0,3.33-6.94,7.42,7.42,0,0,0-2.51-5.87,24.4,24.4,0,0,0-6.94-4l-8.45-3.28a24.55,24.55,0,0,1-9.33-6,13.72,13.72,0,0,1-3.66-9.9,14.65,14.65,0,0,1,1.76-7.31,16,16,0,0,1,4.67-5.23,21.23,21.23,0,0,1,6.75-3.16,29.84,29.84,0,0,1,8-1.07,44.24,44.24,0,0,1,8.07.75,35.07,35.07,0,0,1,8.32,2.78c.76.42,1.13.84,1.13,1.26a4.24,4.24,0,0,1-.24,1l-1.39,4.42c-.25.84-.71,1.26-1.39,1.26a4.12,4.12,0,0,1-1-.26A36.7,36.7,0,0,0,729,446a29.19,29.19,0,0,0-6.87-.95c-3.37,0-5.93.75-7.7,2.26a7.09,7.09,0,0,0-2.65,5.56,6.54,6.54,0,0,0,1.9,5,21.14,21.14,0,0,0,5.92,3.53l9.84,4.17a25,25,0,0,1,9,6.05A14,14,0,0,1,742,481.62Z"/><path d="M808.74,468.13a42.7,42.7,0,0,1-1.7,12.11,31.11,31.11,0,0,1-5.11,10.27,25.91,25.91,0,0,1-29.76,8.14,17.69,17.69,0,0,1-7.44-5.3v30.52a2.15,2.15,0,0,1-.75,1.9,3.72,3.72,0,0,1-2,.5H756.4c-1.59,0-2.39-.89-2.39-2.65V440.51a2.29,2.29,0,0,1,.56-1.83,3,3,0,0,1,1.83-.45h4.8a4.23,4.23,0,0,1,2.14.45,1.93,1.93,0,0,1,.75,1.83v4.41a21.17,21.17,0,0,1,8.21-5.86,26.71,26.71,0,0,1,10.59-2.21,24.7,24.7,0,0,1,11.61,2.58,23.16,23.16,0,0,1,8.06,6.94,30.37,30.37,0,0,1,4.68,10A45.67,45.67,0,0,1,808.74,468.13Zm-11.22.25a44.93,44.93,0,0,0-.76-8.26,21.93,21.93,0,0,0-2.71-7.38,15.6,15.6,0,0,0-5.17-5.3,15.1,15.1,0,0,0-8.13-2,18.08,18.08,0,0,0-4.61.63,24.12,24.12,0,0,0-4.47,1.71,20.56,20.56,0,0,0-4,2.58,16,16,0,0,0-3,3.16v29.64A18.41,18.41,0,0,0,780,492a15.35,15.35,0,0,0,8.26-2.08,16.42,16.42,0,0,0,5.42-5.48,24.2,24.2,0,0,0,3-7.64A40.66,40.66,0,0,0,797.52,468.38Z"/><path d="M835.1,423.35a5.43,5.43,0,0,1-2,4.42,7,7,0,0,1-4.54,1.64,6.81,6.81,0,0,1-4.48-1.64,6,6,0,0,1,0-8.83,6.81,6.81,0,0,1,4.48-1.64,7,7,0,0,1,4.54,1.64A5.41,5.41,0,0,1,835.1,423.35ZM834,496.5c0,1.77-.8,2.65-2.4,2.65h-5.79c-1.69,0-2.53-.88-2.53-2.65V440.76a2.24,2.24,0,0,1,2.53-2.53h5.79c1.6,0,2.4.85,2.4,2.53Z"/><path d="M884.29,497,865.5,468.76l-2.78,2.77v24.85c0,1.85-.83,2.77-2.52,2.77h-5.93c-1.51,0-2.27-.84-2.27-2.52V412.89a2.29,2.29,0,0,1,2-2.53c1.51-.25,2.68-.44,3.53-.56s1.47-.21,1.89-.26a3.76,3.76,0,0,0,.81-.13,1.09,1.09,0,0,1,.32-.05c1.43,0,2.14.8,2.14,2.39v50.83H863l19.54-23a3.64,3.64,0,0,1,2.66-1.39h8.19c.67,0,1.06.22,1.14.63a1.39,1.39,0,0,1-.51,1.27l-19.93,22.7L896.65,496a2.93,2.93,0,0,1,.69,2.21c-.12.63-.81.94-2.08.94h-6.94A4.51,4.51,0,0,1,884.29,497Z"/><path d="M955.42,466.74a4.46,4.46,0,0,1-.63,2.84c-.43.46-1.47.69-3.16.69H912.92a28,28,0,0,0,1.44,8.39,20.44,20.44,0,0,0,3.85,6.75,17.49,17.49,0,0,0,6.19,4.53,20.32,20.32,0,0,0,8.45,1.65,45.07,45.07,0,0,0,7.88-.7,38.88,38.88,0,0,0,7.25-1.95,6.11,6.11,0,0,1,1.7-.26c.55,0,.91.38,1.07,1.14l1.39,4.67a1.4,1.4,0,0,1-.12,1.32,5,5,0,0,1-1.27.95,21.88,21.88,0,0,1-4.48,1.63c-1.63.43-3.32.8-5,1.14a43.46,43.46,0,0,1-5.11.69c-1.68.13-3.23.19-4.66.19a33.88,33.88,0,0,1-12.87-2.26,25.41,25.41,0,0,1-9.33-6.44,26.79,26.79,0,0,1-5.68-10,42.61,42.61,0,0,1-1.89-13.05,38.28,38.28,0,0,1,2-12.61,28.72,28.72,0,0,1,5.86-10,28,28,0,0,1,9.27-6.69,29.34,29.34,0,0,1,12.24-2.46,24.54,24.54,0,0,1,9.71,1.83,22.38,22.38,0,0,1,7.44,5.1,23.43,23.43,0,0,1,5.49,9.28,38.06,38.06,0,0,1,1.7,11.54ZM944.83,463v-1.76a21.32,21.32,0,0,0-.89-6.12,14.53,14.53,0,0,0-2.64-5.1,13.39,13.39,0,0,0-4.48-3.47,14,14,0,0,0-6.24-1.33,16.42,16.42,0,0,0-7,1.45,15.86,15.86,0,0,0-5.23,3.91,20.22,20.22,0,0,0-3.47,5.68,24.91,24.91,0,0,0-1.71,6.74Z"/></g></svg>