<svg xmlns="http://www.w3.org/2000/svg" viewBox="0 0 1280 683.5"><defs><style>.cls-1{fill:#fff;}</style></defs><g id="Layer_1" data-name="Layer 1"><rect width="1280" height="683.5"/></g><g id="Layer_2" data-name="Layer 2"><polygon class="cls-1" points="306.49 161 161.56 161 234.03 317.49 306.49 161"/><path class="cls-1" d="M340.79,334.29l17.42,37.62h15.22L301,215.42,228.51,371.91h15.22l17.42-37.62Zm-39.82-86,33.61,72.59H267.36Z"/><path class="cls-1" d="M524.72,161.13a3.17,3.17,0,0,0-1-.12h-5.92a3.37,3.37,0,0,0-1.88.32,3.66,3.66,0,0,0-1,1.65l-23.31,68.41H490l-24.19-68.64a2.69,2.69,0,0,0-.92-1.38,3.92,3.92,0,0,0-2.06-.36h-7.31c-.24,0-.8,0-.88.27a2.16,2.16,0,0,0,.06,1.41l30,81.19a4.27,4.27,0,0,0,1,1.68,2.37,2.37,0,0,0,1.46.35h5.92a2.3,2.3,0,0,0,2.35-1.73l29.12-81.85A2.71,2.71,0,0,0,524.72,161.13Z"/><path class="cls-1" d="M583.47,240.46a1.65,1.65,0,0,0-.73-.12h-.88a3.23,3.23,0,0,1-3-1.63,5.82,5.82,0,0,1-.64-2.49c-.09-1-.13-2.19-.13-3.69V188.38c0-1.17-.45-1.39-1.27-1.39h-5.68c-1.29,0-1.39.52-1.39,1.18l-.2,7-1.71-2.22a17.51,17.51,0,0,0-7.11-5.43,22.94,22.94,0,0,0-9-1.87,23.75,23.75,0,0,0-9.87,2.11,24.68,24.68,0,0,0-8.25,6.12,29.48,29.48,0,0,0-5.66,9.95,41.57,41.57,0,0,0-2.09,13.73,44.15,44.15,0,0,0,1.42,11.23,28.37,28.37,0,0,0,4.38,9.5,21.64,21.64,0,0,0,7.48,6.51A22.75,22.75,0,0,0,550,247.17a18.81,18.81,0,0,0,5.51-.84,25.12,25.12,0,0,0,5.21-2.24,23.63,23.63,0,0,0,4.36-3.21,14.45,14.45,0,0,0,3-3.77l.28-.53h1.86v1a10,10,0,0,0,1.82,6c1.16,1.59,2.92,2.36,5.38,2.36h5.29c.89,0,.89-.27.89-.64V241C583.5,240.63,583.45,240.47,583.47,240.46Zm-14.11-13.8-.06.16a22,22,0,0,1-6.54,9.19,19.49,19.49,0,0,1-5.13,3.06,16,16,0,0,1-6,1.15c-4.86,0-8.88-2.16-12-6.41s-4.54-9.87-4.54-17.05c0-7.76,1.7-13.85,5.07-18.09a16,16,0,0,1,13-6.49,18.76,18.76,0,0,1,9.26,2.52,17.54,17.54,0,0,1,6.89,7.09l.11.22Z"/><path class="cls-1" d="M644.41,187h-5.93c-.88,0-1.39.25-1.39,1.52V232l-.32.3a34.57,34.57,0,0,1-3.64,2.86,29,29,0,0,1-4.38,2.48,31.46,31.46,0,0,1-4.69,1.7,17.81,17.81,0,0,1-4.62.66,15.48,15.48,0,0,1-6.61-1.23,10,10,0,0,1-4.13-3.51,13.05,13.05,0,0,1-1.91-5.18,40.37,40.37,0,0,1-.46-6.34V188.51c0-1.12-.4-1.52-1.52-1.52h-5.67c-1.13,0-1.53.4-1.53,1.52v36.83a36.92,36.92,0,0,0,1,9,18.69,18.69,0,0,0,3.23,6.89,14.27,14.27,0,0,0,5.72,4.37,22.46,22.46,0,0,0,8.82,1.55,29.34,29.34,0,0,0,19.28-7.33l1.58-1.33.19,6c0,1.05.35,1.4,1.4,1.4h5.42c.94,0,1.52-.3,1.52-1.77V188.51C645.81,187.24,645.29,187,644.41,187Z"/><path class="cls-1" d="M672.41,158.23h-.3c-.12,0-.33.05-.63.11s-1.08.17-2.14.27c-.89.08-2.14.25-3.65.49a2.2,2.2,0,0,0-1,.35,2.8,2.8,0,0,0-.15,1.19v83.74c0,1.41.58,1.53,1.27,1.53H672c.67,0,1.27-.13,1.27-1.65V159.38C673.3,158.23,672.85,158.23,672.41,158.23Z"/><path class="cls-1" d="M722.91,239.63c-.12-.41-.27-.46-.32-.48a.91.91,0,0,0-.35-.07.84.84,0,0,0-.32.07,38.54,38.54,0,0,1-3.76,1,19.77,19.77,0,0,1-4.51.53c-3.39,0-6-1-7.7-2.88a9,9,0,0,1-2-4.52,36.39,36.39,0,0,1-.39-5.71V192.56h15.76c.89,0,.89-.28.89-.64v-4.29c0-.36-.06-.51,0-.52a1.54,1.54,0,0,0-.73-.12H703.57V170.48c0-1.27-.47-1.27-.89-1.27h-.43l-6.06.87a3,3,0,0,0-1.18.39,2.39,2.39,0,0,0-.16,1.14V187h-8.19c-.43,0-.64,0-.64.76v3.92a4.09,4.09,0,0,0,.06.83,4,4,0,0,0,.83.06h7.94v34a70.36,70.36,0,0,0,.56,9.76,11.62,11.62,0,0,0,8.56,9.72,26.34,26.34,0,0,0,7.54,1.09,29.24,29.24,0,0,0,6.21-.67,33.31,33.31,0,0,0,5.12-1.51c1.25-.56,1.13-1.1,1.07-1.37Z"/><path class="cls-1" d="M753.75,209.94h-19.3a2.42,2.42,0,0,0-1.33.23s-.19.2-.19,1v5.18a1.84,1.84,0,0,0,.25,1.16s.29.24,1.53.24H754c1,0,1.22-.25,1.23-.26a2.64,2.64,0,0,0,.28-1.52v-4.54a2.57,2.57,0,0,0-.2-1.31A3.17,3.17,0,0,0,753.75,209.94Z"/><path class="cls-1" d="M817.15,237.66a30.34,30.34,0,0,0,5-9.95,42.09,42.09,0,0,0,1.66-11.82,44.61,44.61,0,0,0-1.48-11.48,29.24,29.24,0,0,0-4.51-9.7,22.28,22.28,0,0,0-7.72-6.64,23.94,23.94,0,0,0-11.15-2.46,25.9,25.9,0,0,0-10.2,2.12,20.45,20.45,0,0,0-7.82,5.58l-1.77,2.13v-7.18c0-.51-.1-.87-.25-1a3.55,3.55,0,0,0-1.65-.31h-4.79a2.13,2.13,0,0,0-1.21.23s-.19.2-.19,1v83.11c0,1.39.51,1.66,1.4,1.66H778a2.77,2.77,0,0,0,1.46-.33c.26-.18.31-.68.31-1.07V238.32l1.77,2.15a16.74,16.74,0,0,0,7,5,25.45,25.45,0,0,0,20.36-.9A24.63,24.63,0,0,0,817.15,237.66Zm-3.52-12.94a25,25,0,0,1-3.09,8,17.43,17.43,0,0,1-5.75,5.8,16.31,16.31,0,0,1-8.79,2.24,19.44,19.44,0,0,1-16.13-9.34l-.13-.23V200.94l.18-.26a16.82,16.82,0,0,1,3.15-3.35,21.85,21.85,0,0,1,4.16-2.71,25.28,25.28,0,0,1,4.67-1.78,18.93,18.93,0,0,1,4.86-.66,16.16,16.16,0,0,1,8.67,2.17,16.71,16.71,0,0,1,5.49,5.63,23,23,0,0,1,2.84,7.71,46.35,46.35,0,0,1,.78,8.44A41.94,41.94,0,0,1,813.63,224.72Z"/><path class="cls-1" d="M847,158.23h-.3c-.12,0-.33.05-.63.11s-1.08.17-2.14.27c-.89.08-2.14.25-3.65.49a2.53,2.53,0,0,0-1,.34,2.94,2.94,0,0,0-.15,1.2v83.74c0,1.41.58,1.53,1.27,1.53h6.18c.67,0,1.27-.13,1.27-1.65V159.38C847.85,158.23,847.4,158.23,847,158.23Z"/><path class="cls-1" d="M913.55,187h-5.93c-.88,0-1.39.25-1.39,1.52V232l-.33.3a32.61,32.61,0,0,1-3.64,2.86,28.08,28.08,0,0,1-4.38,2.48,31,31,0,0,1-4.68,1.7,17.81,17.81,0,0,1-4.62.66,15.45,15.45,0,0,1-6.61-1.23,10,10,0,0,1-4.13-3.51,13.16,13.16,0,0,1-1.92-5.18,40.45,40.45,0,0,1-.45-6.34V188.51c0-1.12-.4-1.52-1.52-1.52h-5.67c-1.13,0-1.53.4-1.53,1.52v36.83a36.92,36.92,0,0,0,1,9,18.61,18.61,0,0,0,3.23,6.89,14.2,14.2,0,0,0,5.72,4.37,22.41,22.41,0,0,0,8.81,1.55,29.37,29.37,0,0,0,19.29-7.33l1.57-1.33.2,6c0,1.05.35,1.4,1.39,1.4h5.43c.93,0,1.51-.3,1.51-1.77V188.51C914.94,187.24,914.43,187,913.55,187Z"/><path class="cls-1" d="M976.73,265.87a23.86,23.86,0,0,0,4.78-9.38,49.34,49.34,0,0,0,1.54-12.86V188.51c0-1.41-.58-1.52-1.27-1.52h-5.55c-1.41,0-1.52.52-1.52,1.18l-.22,6.72-1.7-2.24a16.27,16.27,0,0,0-7.09-5.22,23.55,23.55,0,0,0-8.76-1.82,25.34,25.34,0,0,0-11.48,2.47,24.88,24.88,0,0,0-8.3,6.74A29.11,29.11,0,0,0,932,204.7a40.09,40.09,0,0,0-1.72,11.82A43.57,43.57,0,0,0,931.79,228a26.78,26.78,0,0,0,4.55,9.36,21.67,21.67,0,0,0,7.79,6.27,25.23,25.23,0,0,0,11.16,2.3,26,26,0,0,0,9.54-1.95,19.89,19.89,0,0,0,7.75-5.16l1.75-2v8.45a44.06,44.06,0,0,1-.84,9,16.19,16.19,0,0,1-3.1,6.85,14.45,14.45,0,0,1-5.89,4.28,24.09,24.09,0,0,1-9.08,1.45,26.9,26.9,0,0,1-7.47-1.17,59.17,59.17,0,0,1-7.49-2.71,2,2,0,0,0-.81-.28c-.39,0-.73.85-.82,1.11l-1.38,3.77a2.59,2.59,0,0,0-.2.81c0,.17,0,.64.94,1.11a47.6,47.6,0,0,0,8.58,3,36.67,36.67,0,0,0,8.9,1.17,35.46,35.46,0,0,0,12.64-2A20.58,20.58,0,0,0,976.73,265.87Zm-2.59-35a19,19,0,0,1-7.44,6,21.84,21.84,0,0,1-9.64,2.37,15.56,15.56,0,0,1-8.35-2.1,16.42,16.42,0,0,1-5.43-5.5,23.49,23.49,0,0,1-2.9-7.51,40.17,40.17,0,0,1-.84-8.2,38,38,0,0,1,1-8.62,23.27,23.27,0,0,1,3.16-7.58,16.66,16.66,0,0,1,14.53-7.51,17.79,17.79,0,0,1,9.34,2.67,18.84,18.84,0,0,1,6.65,6.53l.14.23v29Z"/><path class="cls-1" d="M1010.28,187h-5.8c-1.13,0-1.53.4-1.53,1.52v55.75c0,1.38.56,1.65,1.53,1.65h5.8c.88,0,1.39-.27,1.39-1.65V188.51C1011.67,187.24,1011.16,187,1010.28,187Z"/><path class="cls-1" d="M1003.42,174.76a5.75,5.75,0,0,0,3.83,1.4,6,6,0,0,0,3.91-1.41,4.83,4.83,0,0,0,0-7.27,6,6,0,0,0-3.91-1.43,5.69,5.69,0,0,0-3.83,1.42,5,5,0,0,0,0,7.29Z"/><path class="cls-1" d="M1061.87,185.61a30.89,30.89,0,0,0-10.57,1.88,32.37,32.37,0,0,0-9.48,5.45l-1.58,1.3-.18-6c0-.82-.22-1.27-1.4-1.27h-5.55c-.88,0-1.39.25-1.39,1.52v55.87c0,1.29.49,1.53,1.39,1.53H1039c.88,0,1.4-.27,1.4-1.65V200.44l.32-.3a25.78,25.78,0,0,1,3.94-3,39.81,39.81,0,0,1,4.53-2.39,28.17,28.17,0,0,1,4.84-1.64,21.14,21.14,0,0,1,4.77-.59,15.45,15.45,0,0,1,6.61,1.23,10.23,10.23,0,0,1,4.19,3.57,13.83,13.83,0,0,1,2,5.23,35.67,35.67,0,0,1,.53,6.35v35.32c0,1.38.51,1.65,1.39,1.65h5.93c.88,0,1.39-.27,1.39-1.65V207.18c0-6.63-1.48-12-4.4-15.85S1068.74,185.61,1061.87,185.61Z"/><path class="cls-1" d="M1117.23,209.94h-19.3a2.51,2.51,0,0,0-1.34.23s-.18.2-.18,1v5.18a1.77,1.77,0,0,0,.25,1.16s.29.24,1.53.24h19.29c1,0,1.23-.25,1.23-.26A2.51,2.51,0,0,0,1119,216v-4.54a2.57,2.57,0,0,0-.2-1.31A3.22,3.22,0,0,0,1117.23,209.94Z"/><path class="cls-1" d="M508.83,284.36h-.2l-.68.12c-.45.08-1.08.16-2.12.27-.86.07-2.05.23-3.62.48a2,2,0,0,0-1,.39,2.59,2.59,0,0,0-.2,1.28v33.49l-1.77-2.07a18,18,0,0,0-7-4.89,22.73,22.73,0,0,0-8.64-1.82A24.69,24.69,0,0,0,472.69,314a25.18,25.18,0,0,0-8.31,6.49,30,30,0,0,0-5.37,9.89,40.12,40.12,0,0,0-1.9,12.55,45,45,0,0,0,1.48,11.59,29.24,29.24,0,0,0,4.51,9.7,22.11,22.11,0,0,0,7.73,6.64,24,24,0,0,0,11.26,2.47,24.37,24.37,0,0,0,10.06-2.18,21.1,21.1,0,0,0,7.71-5.65l1.69-2,.21,7.22c0,.89.27,1.4,1.65,1.4h5.42c.34,0,.89,0,.89-1.65V285.5C509.72,284.36,509.27,284.36,508.83,284.36ZM501,357.68l-.16.25a15.27,15.27,0,0,1-3.18,3.51,23.49,23.49,0,0,1-4.14,2.76,22.55,22.55,0,0,1-4.61,1.85,17.94,17.94,0,0,1-4.81.66,15.64,15.64,0,0,1-7.8-1.89,16.7,16.7,0,0,1-5.63-5.16,23.51,23.51,0,0,1-3.37-7.71,39.59,39.59,0,0,1-1.1-9.57c0-7.15,1.63-13,4.86-17.43s8-6.77,14.05-6.77a17.3,17.3,0,0,1,9.3,2.73,18.51,18.51,0,0,1,6.46,6.61l.13.23Z"/><path class="cls-1" d="M582.08,366.58a1.69,1.69,0,0,0-.73-.11h-.88a3.23,3.23,0,0,1-3-1.63,6,6,0,0,1-.64-2.5c-.09-1-.13-2.18-.13-3.69V314.51c0-1.18-.44-1.4-1.27-1.4h-5.68c-1.29,0-1.39.52-1.39,1.18l-.2,7L566.43,319a17.41,17.41,0,0,0-7.1-5.43,22.94,22.94,0,0,0-9-1.87,23.75,23.75,0,0,0-9.87,2.11,24.84,24.84,0,0,0-8.25,6.13,29.33,29.33,0,0,0-5.66,9.94,41.57,41.57,0,0,0-2.09,13.73,44.15,44.15,0,0,0,1.42,11.23,28.37,28.37,0,0,0,4.38,9.5,21.67,21.67,0,0,0,7.48,6.52,22.87,22.87,0,0,0,10.82,2.4,18.86,18.86,0,0,0,5.51-.84,25.12,25.12,0,0,0,5.21-2.24,23.18,23.18,0,0,0,4.36-3.21,14.45,14.45,0,0,0,3-3.77l.28-.53h1.86v1a10,10,0,0,0,1.82,6c1.16,1.59,2.92,2.36,5.38,2.36h5.29c.9,0,.9-.27.9-.64V367.1C582.12,366.75,582.06,366.59,582.08,366.58ZM568,352.78l-.06.17a21.6,21.6,0,0,1-2.58,4.88,21.2,21.2,0,0,1-4,4.3,19.79,19.79,0,0,1-5.13,3.07,16.22,16.22,0,0,1-6,1.14c-4.86,0-8.88-2.16-12-6.4s-4.54-9.88-4.54-17.05c0-7.77,1.7-13.86,5.07-18.09a15.93,15.93,0,0,1,13-6.5,18.66,18.66,0,0,1,9.26,2.53,17.45,17.45,0,0,1,6.89,7.08l.11.22Z"/><path class="cls-1" d="M626.93,365.75c-.12-.41-.27-.46-.31-.48a1.27,1.27,0,0,0-.36-.07.84.84,0,0,0-.32.07c-1,.35-2.25.69-3.75,1a19.9,19.9,0,0,1-4.51.53c-3.4,0-6-1-7.71-2.88a9.16,9.16,0,0,1-2-4.52,36.39,36.39,0,0,1-.39-5.71V318.68h15.76c.89,0,.89-.28.89-.63v-4.29c0-.36,0-.52,0-.53a1.74,1.74,0,0,0-.73-.12H607.59V296.6c0-1.27-.47-1.27-.89-1.27h-.43l-6.06.87a2.69,2.69,0,0,0-1.17.4s-.16.23-.16,1.13v15.38h-8.2c-.43,0-.64,0-.64.77v3.91a4.94,4.94,0,0,0,.06.83,4.09,4.09,0,0,0,.83.06h8v34.05a70.51,70.51,0,0,0,.55,9.75,11.72,11.72,0,0,0,3.1,6.48A11.59,11.59,0,0,0,608,372.2a25.93,25.93,0,0,0,7.53,1.09,28.6,28.6,0,0,0,6.21-.67,32.65,32.65,0,0,0,5.12-1.51c1.25-.55,1.13-1.1,1.07-1.37Z"/><path class="cls-1" d="M691.67,366.58a1.67,1.67,0,0,0-.72-.11h-.88a3.22,3.22,0,0,1-3-1.63,5.87,5.87,0,0,1-.64-2.5c-.09-1-.13-2.18-.13-3.69V314.51c0-1.18-.45-1.4-1.27-1.4h-5.68c-1.29,0-1.4.52-1.4,1.18l-.2,7L676,319a17.37,17.37,0,0,0-7.11-5.43,22.94,22.94,0,0,0-9-1.87,23.7,23.7,0,0,0-9.86,2.11,24.74,24.74,0,0,0-8.25,6.13,29.35,29.35,0,0,0-5.67,9.94,41.84,41.84,0,0,0-2.09,13.73,44.6,44.6,0,0,0,1.42,11.23,28.57,28.57,0,0,0,4.38,9.5,21.76,21.76,0,0,0,7.48,6.52,22.88,22.88,0,0,0,10.83,2.4,18.91,18.91,0,0,0,5.51-.84,25.35,25.35,0,0,0,5.21-2.24,23.1,23.1,0,0,0,4.35-3.21,14.49,14.49,0,0,0,3-3.77l.28-.53h1.86v1a10,10,0,0,0,1.82,6c1.16,1.59,2.92,2.36,5.37,2.36h5.3c.89,0,.89-.27.89-.64V367.1A4.29,4.29,0,0,0,691.67,366.58Zm-14.1-13.8-.06.17a22.23,22.23,0,0,1-2.58,4.88,21.25,21.25,0,0,1-4,4.3,19.57,19.57,0,0,1-5.12,3.07,16.27,16.27,0,0,1-6.05,1.14c-4.85,0-8.88-2.16-12-6.4s-4.55-9.88-4.55-17.05c0-7.77,1.71-13.86,5.08-18.09a15.92,15.92,0,0,1,12.94-6.5,18.7,18.7,0,0,1,9.27,2.53,17.43,17.43,0,0,1,6.88,7.08l.12.22Z"/><path class="cls-1" d="M751.71,364.16a29.08,29.08,0,0,0,4.93-9.82,42.56,42.56,0,0,0,1.66-12A44.19,44.19,0,0,0,756,328a25.3,25.3,0,0,0-7-10.8,22.15,22.15,0,0,0-6.64-4,26.51,26.51,0,0,0-18.84.61,24.9,24.9,0,0,0-7.33,4.84l-1.71,1.71V285.5c0-1-.33-1.14-1-1.14h-.2l-.58.1-.11,0c-.45.08-1.08.16-2.1.27-.85.07-2.08.24-3.62.48a2.09,2.09,0,0,0-.9.32,3,3,0,0,0-.19,1.35v83.74c0,1.05.35,1.4,1.4,1.4H712c1.34,0,1.49-.51,1.52-1.08l.39-7,1.62,1.92a21.58,21.58,0,0,0,7.12,5.29,20.54,20.54,0,0,0,9,2.17,26.15,26.15,0,0,0,11.79-2.48A24,24,0,0,0,751.71,364.16Zm-12.67.47a18.47,18.47,0,0,1-17.51-.51,21.18,21.18,0,0,1-6.81-6.29l-.18-.25V326.73l.26-.29a26.5,26.5,0,0,1,7.54-5.57,20.24,20.24,0,0,1,9.21-2.32,16.32,16.32,0,0,1,8.07,1.9,15,15,0,0,1,5.46,5.26,24.67,24.67,0,0,1,3,7.69,43.93,43.93,0,0,1,1,9.49,39.25,39.25,0,0,1-1,8.86,22.22,22.22,0,0,1-3.23,7.6A16.66,16.66,0,0,1,739,364.63Z"/><polygon class="cls-1" points="706.01 285.54 706.01 285.54 706.01 285.54 706.01 285.54"/><path class="cls-1" d="M827.38,366.58a1.69,1.69,0,0,0-.73-.11h-.88a3.2,3.2,0,0,1-3-1.63,5.87,5.87,0,0,1-.64-2.5c-.09-1-.14-2.18-.14-3.69V314.51c0-1.18-.44-1.4-1.26-1.4h-5.68c-1.29,0-1.4.52-1.4,1.18l-.2,7L811.74,319a17.44,17.44,0,0,0-7.11-5.43,22.94,22.94,0,0,0-9-1.87,23.75,23.75,0,0,0-9.87,2.11,24.81,24.81,0,0,0-8.24,6.13,29.19,29.19,0,0,0-5.67,9.94,41.57,41.57,0,0,0-2.09,13.73,44.6,44.6,0,0,0,1.42,11.23,28.37,28.37,0,0,0,4.38,9.5,21.67,21.67,0,0,0,7.48,6.52,22.87,22.87,0,0,0,10.82,2.4,18.81,18.81,0,0,0,5.51-.84,25.44,25.44,0,0,0,5.22-2.24,23.43,23.43,0,0,0,4.35-3.21,14.24,14.24,0,0,0,2.95-3.77l.29-.53H814v1a10,10,0,0,0,1.82,6,6.18,6.18,0,0,0,5.38,2.36h5.29c.9,0,.9-.27.9-.64V367.1A4.29,4.29,0,0,0,827.38,366.58Zm-14.1-13.8-.07.17a21.77,21.77,0,0,1-2.57,4.88,21.54,21.54,0,0,1-4,4.3,19.74,19.74,0,0,1-5.12,3.07,16.31,16.31,0,0,1-6,1.14c-4.85,0-8.88-2.16-12-6.4S779,350.06,779,342.89c0-7.77,1.71-13.86,5.07-18.09a15.94,15.94,0,0,1,13-6.5,18.73,18.73,0,0,1,9.27,2.53,17.49,17.49,0,0,1,6.88,7.08l.12.22Z"/><path class="cls-1" d="M870.63,368.45a15.47,15.47,0,0,0,4.5-5.51,16.74,16.74,0,0,0,1.6-7.44,13.08,13.08,0,0,0-3.39-9.28,24,24,0,0,0-8.61-5.82l-9.85-4.16a22.41,22.41,0,0,1-6.21-3.72,7.55,7.55,0,0,1-2.21-5.78,8.07,8.07,0,0,1,3-6.31c1.95-1.66,4.75-2.51,8.34-2.51a29.92,29.92,0,0,1,7.12,1,38.94,38.94,0,0,1,6.49,2.12c.51.17.66.19.64.19s.27,0,.44-.57l1.39-4.43a5.47,5.47,0,0,0,.19-.64,2.54,2.54,0,0,0-.55-.41,34.1,34.1,0,0,0-8.08-2.7,43.6,43.6,0,0,0-7.88-.73,29.14,29.14,0,0,0-7.74,1,20.26,20.26,0,0,0-6.44,3,14.87,14.87,0,0,0-4.38,4.91,13.79,13.79,0,0,0-1.63,6.82,12.67,12.67,0,0,0,3.38,9.21,23.77,23.77,0,0,0,9,5.75l8.46,3.28a25.33,25.33,0,0,1,7.24,4.15,8.45,8.45,0,0,1,2.85,6.62,9.17,9.17,0,0,1-3.74,7.73A15.38,15.38,0,0,1,855,367a28.56,28.56,0,0,1-7.59-1.17,72.26,72.26,0,0,1-7.8-2.69,1.07,1.07,0,0,0-.35-.09c-.21,0-.39.4-.47.64l-1.65,4.56c-.18.46-.22.76.61,1.12a58,58,0,0,0,7.69,2.66,33.2,33.2,0,0,0,9.18,1.29,29.91,29.91,0,0,0,9-1.28A22,22,0,0,0,870.63,368.45Z"/><path class="cls-1" d="M932.25,318.36a21.28,21.28,0,0,0-7.11-4.88,23.61,23.61,0,0,0-9.32-1.75A28.45,28.45,0,0,0,904,314.1a27,27,0,0,0-9,6.45,27.84,27.84,0,0,0-5.65,9.68,37.33,37.33,0,0,0-2,12.28,41.77,41.77,0,0,0,1.84,12.75,26.12,26.12,0,0,0,5.46,9.65,24.72,24.72,0,0,0,9,6.19,33.2,33.2,0,0,0,12.49,2.19c1.39,0,2.94-.06,4.59-.19a41.47,41.47,0,0,0,5-.68c1.76-.34,3.44-.72,5-1.12a21.28,21.28,0,0,0,4.23-1.53,4.59,4.59,0,0,0,1-.7.79.79,0,0,0-.05-.42l-1.41-4.73a2.85,2.85,0,0,0-.11-.36,5,5,0,0,0-1.33.19,40.46,40.46,0,0,1-7.43,2,47.14,47.14,0,0,1-8.06.71,21.68,21.68,0,0,1-8.86-1.73,18.81,18.81,0,0,1-6.53-4.8,21.3,21.3,0,0,1-4-7.08,29.24,29.24,0,0,1-1.5-8.69l0-1h39.75c2,0,2.41-.37,2.42-.38s.36-.44.36-2.15v-2.14a37,37,0,0,0-1.65-11.24A22.38,22.38,0,0,0,932.25,318.36Zm-1.68,19.47H896.79l.13-1.11a25.51,25.51,0,0,1,1.77-7,21.51,21.51,0,0,1,3.64-6,16.89,16.89,0,0,1,5.56-4.16,17.54,17.54,0,0,1,7.43-1.54,15,15,0,0,1,6.68,1.43,14.19,14.19,0,0,1,4.81,3.73,15.6,15.6,0,0,1,2.83,5.45,22.29,22.29,0,0,1,.93,6.41Z"/><path class="cls-1" d="M972.83,336.07h-19.3a2.49,2.49,0,0,0-1.33.22s-.19.21-.19,1v5.18a1.8,1.8,0,0,0,.25,1.16s.29.24,1.53.24h19.3c1,0,1.22-.25,1.23-.25a2.69,2.69,0,0,0,.28-1.53v-4.54a2.45,2.45,0,0,0-.2-1.3S974.07,336.07,972.83,336.07Z"/><path class="cls-1" d="M524.72,498.15a2.31,2.31,0,0,0,.87-.11,2.41,2.41,0,0,0-.16-1.19l-31.15-82.7a1.26,1.26,0,0,0-1.34-.89h-6.69c-.48,0-1,.13-1.33,1.12L453.29,496.9a5.66,5.66,0,0,0-.21,1.23l.38,0h7.45c1,0,1.22-.19,1.22-.19a3.5,3.5,0,0,0,.74-1.29l8.94-24.25h34.07l8.56,24.12c.35,1,.65,1.28.76,1.35a3.31,3.31,0,0,0,1.7.26Zm-50.61-32.43,10.82-30,3.39-9.89h1.61l.19.74c.24.89.6,2.07,1.06,3.49s1.07,3.22,1.82,5.4l10.55,30.21Z"/><path class="cls-1" d="M578.36,444.48a21.33,21.33,0,0,0-7.12-4.88,23.53,23.53,0,0,0-9.31-1.75,28.45,28.45,0,0,0-11.82,2.37,27,27,0,0,0-9,6.45,28,28,0,0,0-5.66,9.68,37.6,37.6,0,0,0-2,12.28,42.08,42.08,0,0,0,1.83,12.75,26.12,26.12,0,0,0,5.47,9.66,24.49,24.49,0,0,0,9,6.18,33,33,0,0,0,12.49,2.19c1.39,0,2.94-.06,4.59-.18a47,47,0,0,0,5-.68c1.77-.35,3.44-.73,5-1.13a21.28,21.28,0,0,0,4.23-1.53,4.73,4.73,0,0,0,1-.69,1,1,0,0,0-.05-.43L580.63,490a2.85,2.85,0,0,0-.11-.36,5.34,5.34,0,0,0-1.33.19,40.35,40.35,0,0,1-7.44,2,46.93,46.93,0,0,1-8,.71,21.52,21.52,0,0,1-8.86-1.73,18.69,18.69,0,0,1-6.53-4.8,21.2,21.2,0,0,1-4-7.08,29.18,29.18,0,0,1-1.5-8.68l0-1h39.74c2,0,2.42-.37,2.43-.38s.36-.44.36-2.15V464.6a37.38,37.38,0,0,0-1.65-11.24A22.38,22.38,0,0,0,578.36,444.48ZM576.68,464H542.9l.12-1.1a25.86,25.86,0,0,1,1.78-7,21.08,21.08,0,0,1,3.64-5.95,16.78,16.78,0,0,1,5.56-4.17,17.54,17.54,0,0,1,7.43-1.54,14.94,14.94,0,0,1,6.67,1.43,14.25,14.25,0,0,1,4.82,3.73,15.6,15.6,0,0,1,2.83,5.45,22.29,22.29,0,0,1,.93,6.41Z"/><path class="cls-1" d="M627.27,438.2a9.78,9.78,0,0,0-1.84-.29c-.65,0-1.17-.06-1.58-.06a14.3,14.3,0,0,0-8.08,2.23,21.77,21.77,0,0,0-5.61,5.3l-1.73,2.39-.2-7.26c0-.83-.25-1.28-1.53-1.28h-5.42c-.89,0-1.4.25-1.4,1.53V496.5c0,1.38.51,1.65,1.4,1.65h5.93c.88,0,1.39-.27,1.39-1.65V453.17l.19-.26a20.73,20.73,0,0,1,6.23-5.83,14.17,14.17,0,0,1,7.19-2.15,12.41,12.41,0,0,1,2.77.22,5.52,5.52,0,0,0,1.27.16c.31,0,.36,0,.4-.42l.89-5.7a2.27,2.27,0,0,0,0-.86A.6.6,0,0,0,627.27,438.2Z"/><path class="cls-1" d="M683.19,490.55a28.06,28.06,0,0,0,5.42-9.74,39.34,39.34,0,0,0,1.84-12.18,44.5,44.5,0,0,0-1.66-12.39,27.15,27.15,0,0,0-5-9.74,22.88,22.88,0,0,0-8.46-6.34,30,30,0,0,0-12.27-2.31A29.08,29.08,0,0,0,651,440.22a25,25,0,0,0-8.74,6.43,28,28,0,0,0-5.36,9.68,39.62,39.62,0,0,0-1.83,12.17,45.44,45.44,0,0,0,1.6,12.34,27,27,0,0,0,4.92,9.74,23.14,23.14,0,0,0,8.47,6.47,29.37,29.37,0,0,0,12.26,2.36A29,29,0,0,0,674.39,497,25.47,25.47,0,0,0,683.19,490.55Zm-20.75,2.54a16.67,16.67,0,0,1-8.92-2.23,16.41,16.41,0,0,1-5.63-5.84,25.67,25.67,0,0,1-2.89-7.94,45.9,45.9,0,0,1-.84-8.83,40.37,40.37,0,0,1,.91-8.47,24.89,24.89,0,0,1,3-7.74,16.44,16.44,0,0,1,5.77-5.71,17.65,17.65,0,0,1,9.09-2.16A15.94,15.94,0,0,1,677.42,452a25.14,25.14,0,0,1,3,7.87,43.42,43.42,0,0,1,.9,8.85,39.47,39.47,0,0,1-1,8.79,24.73,24.73,0,0,1-3.16,7.76,16.88,16.88,0,0,1-5.89,5.62A17.32,17.32,0,0,1,662.44,493.09Z"/><path class="cls-1" d="M734.92,494.58a15.72,15.72,0,0,0,4.51-5.52,16.74,16.74,0,0,0,1.6-7.44,13.11,13.11,0,0,0-3.39-9.28,24,24,0,0,0-8.62-5.81l-9.85-4.17a22.57,22.57,0,0,1-6.21-3.72,7.56,7.56,0,0,1-2.21-5.77,8.08,8.08,0,0,1,3-6.32c2-1.66,4.76-2.5,8.35-2.5a30.31,30.31,0,0,1,7.11,1,38.94,38.94,0,0,1,6.49,2.12,5.61,5.61,0,0,0,.65.19c.1,0,.27,0,.43-.56l1.4-4.44c.11-.34.16-.54.18-.63a1.83,1.83,0,0,0-.55-.41,34.15,34.15,0,0,0-8.08-2.71,43.6,43.6,0,0,0-7.88-.73,29.14,29.14,0,0,0-7.74,1,20.36,20.36,0,0,0-6.44,3,15.1,15.1,0,0,0-4.38,4.91,13.79,13.79,0,0,0-1.63,6.82,12.67,12.67,0,0,0,3.38,9.21,23.69,23.69,0,0,0,9,5.75l8.46,3.29A25.4,25.4,0,0,1,729.7,476a8.45,8.45,0,0,1,2.85,6.62,9.19,9.19,0,0,1-3.73,7.74,15.46,15.46,0,0,1-9.49,2.72,28.56,28.56,0,0,1-7.59-1.17,69.45,69.45,0,0,1-7.8-2.69,1.11,1.11,0,0,0-.36-.09c-.21,0-.39.4-.47.64l-1.65,4.57c-.17.45-.22.76.61,1.12a61.07,61.07,0,0,0,7.69,2.66,33.57,33.57,0,0,0,9.18,1.28,30,30,0,0,0,9-1.28A22.19,22.19,0,0,0,734.92,494.58Z"/><path class="cls-1" d="M801.14,489.9a30.27,30.27,0,0,0,4.94-9.94,41.86,41.86,0,0,0,1.67-11.83,44.73,44.73,0,0,0-1.48-11.48,29.5,29.5,0,0,0-4.52-9.69,22.18,22.18,0,0,0-7.72-6.64,23.78,23.78,0,0,0-11.14-2.47,26,26,0,0,0-10.2,2.12,20.4,20.4,0,0,0-7.83,5.59l-1.77,2.13v-7.18c0-.51-.09-.87-.25-1a3.48,3.48,0,0,0-1.64-.31h-4.8a2.16,2.16,0,0,0-1.21.23s-.18.2-.18,1.05v83.11c0,1.38.51,1.65,1.39,1.65H762a2.65,2.65,0,0,0,1.46-.33c.26-.18.32-.68.32-1.07v-33.3l1.77,2.15a17,17,0,0,0,7,5,24.4,24.4,0,0,0,28.61-7.82ZM797.61,477a25.14,25.14,0,0,1-3.08,7.95,17.65,17.65,0,0,1-5.75,5.81A16.42,16.42,0,0,1,780,493a19.44,19.44,0,0,1-16.14-9.34l-.12-.22V453.18l.17-.25a17.48,17.48,0,0,1,3.15-3.36,21.4,21.4,0,0,1,4.17-2.7,24.49,24.49,0,0,1,4.66-1.78,18.6,18.6,0,0,1,4.87-.67,16,16,0,0,1,8.66,2.18,16.61,16.61,0,0,1,5.5,5.62,23.29,23.29,0,0,1,2.84,7.72,47.07,47.07,0,0,1,.77,8.44A41.4,41.4,0,0,1,797.61,477Z"/><path class="cls-1" d="M831.56,439.23h-5.79c-1.13,0-1.53.4-1.53,1.53V496.5c0,1.38.56,1.65,1.53,1.65h5.79c.89,0,1.4-.27,1.4-1.65V440.76C833,439.48,832.45,439.23,831.56,439.23Z"/><path class="cls-1" d="M823.11,423.35a4.45,4.45,0,0,0,1.6,3.65,5.69,5.69,0,0,0,3.83,1.41,6,6,0,0,0,3.91-1.42,4.83,4.83,0,0,0,0-7.27,6,6,0,0,0-3.91-1.42,5.77,5.77,0,0,0-3.84,1.41A4.44,4.44,0,0,0,823.11,423.35Z"/><path class="cls-1" d="M896.36,498a2.18,2.18,0,0,0-.53-1.44l-23-33.81,20.49-23.34a.86.86,0,0,0,.16-.18h-8.28a2.61,2.61,0,0,0-1.89,1l-19.85,23.31h-1.72V411.75c0-1.29-.49-1.39-1.11-1.4a4.73,4.73,0,0,1-1.05.19c-.41,0-1,.12-1.85.25s-2,.31-3.5.56c-.72.13-1.21.44-1.21,1.54v83.74c0,1.41.58,1.52,1.27,1.52h5.93c1,0,1.52-.29,1.52-1.77V471.12l3.93-3.93,19.48,29.28a3.49,3.49,0,0,0,3.19,1.68h6.94a2.75,2.75,0,0,0,1.1-.15Z"/><path class="cls-1" d="M947.51,444.48a21.33,21.33,0,0,0-7.12-4.88,23.56,23.56,0,0,0-9.31-1.75,28.41,28.41,0,0,0-11.82,2.37,27,27,0,0,0-9,6.45,28,28,0,0,0-5.66,9.68,37.38,37.38,0,0,0-2,12.28,41.77,41.77,0,0,0,1.84,12.75A26.12,26.12,0,0,0,910,491a24.54,24.54,0,0,0,9,6.18,33.06,33.06,0,0,0,12.5,2.19c1.39,0,2.94-.06,4.59-.18a47.3,47.3,0,0,0,5-.68c1.76-.35,3.44-.73,5-1.13a21,21,0,0,0,4.22-1.53,4.63,4.63,0,0,0,1-.69,1,1,0,0,0,0-.43L949.78,490a2.85,2.85,0,0,0-.11-.36,5.34,5.34,0,0,0-1.33.19,40.35,40.35,0,0,1-7.44,2,46.93,46.93,0,0,1-8,.71,21.52,21.52,0,0,1-8.86-1.73,18.6,18.6,0,0,1-6.53-4.8,21.3,21.3,0,0,1-4-7.08,28.86,28.86,0,0,1-1.5-8.68l0-1h39.74c2,0,2.42-.37,2.43-.38s.36-.44.36-2.15V464.6a37,37,0,0,0-1.66-11.24A22.24,22.24,0,0,0,947.51,444.48ZM945.83,464H912.05l.12-1.1a25.86,25.86,0,0,1,1.78-7,21.08,21.08,0,0,1,3.64-5.95,16.78,16.78,0,0,1,5.56-4.17,17.51,17.51,0,0,1,7.43-1.54,14.94,14.94,0,0,1,6.67,1.43,14.45,14.45,0,0,1,4.82,3.73,15.6,15.6,0,0,1,2.83,5.45,22.64,22.64,0,0,1,.93,6.41Z"/></g></svg>